<svg xmlns="http://www.w3.org/2000/svg" width="1600" height="900" viewBox="0 0 1600 900">
  <rect width="1600" height="900" fill="#fff"/>
  <circle cx="1440" cy="120" r="28" fill="#e60012"/>
  <text x="800" y="158" text-anchor="middle" fill="#050505" font-family="Inter, Segoe UI, Arial, sans-serif" font-size="60" font-weight="900">Project Sync</text>
  <path d="M758 196h84" stroke="#050505" stroke-width="9" stroke-linecap="round"/>
  <text x="800" y="242" text-anchor="middle" fill="#475569" font-family="Inter, Segoe UI, Arial, sans-serif" font-size="24" font-weight="600">Sheets · Backlog · Git</text>
  <g transform="translate(240 120) scale(.70)">
    <g transform="translate(500 365)">
          <rect x="0" y="70" width="210" height="210" rx="38" fill="#e8f0fe"/><rect x="390" y="0" width="210" height="210" rx="38" fill="#fff1f2"/><rect x="680" y="180" width="210" height="210" rx="38" fill="#f0fdf4"/>
          <path d="M190 88c82-76 175-94 278-53M565 164c76 36 119 88 145 158M670 365c-154 57-290 38-407-56" fill="none" stroke="#2563eb" stroke-width="18" stroke-linecap="round"/>
          <path d="M448 2l30 36-45 13M731 294l-18 45-42-22M283 333l-38-29 34-33" fill="none" stroke="#2563eb" stroke-width="16" stroke-linecap="round" stroke-linejoin="round"/>
          <text x="105" y="198" text-anchor="middle" fill="#2563eb" font-family="Arial" font-size="54" font-weight="900">S</text><text x="495" y="130" text-anchor="middle" fill="#e11d48" font-family="Arial" font-size="54" font-weight="900">B</text><text x="785" y="310" text-anchor="middle" fill="#0f9f78" font-family="Arial" font-size="54" font-weight="900">G</text>
        </g>
  </g>
</svg>
