<svg xmlns="http://www.w3.org/2000/svg" width="1600" height="900" viewBox="0 0 1600 900">
  <rect width="1600" height="900" fill="#fff"/>
  <circle cx="1440" cy="120" r="28" fill="#e60012"/>
  <text x="800" y="158" text-anchor="middle" fill="#050505" font-family="Inter, Segoe UI, Arial, sans-serif" font-size="60" font-weight="900">Local AI Memory</text>
  <path d="M758 196h84" stroke="#050505" stroke-width="9" stroke-linecap="round"/>
  <text x="800" y="242" text-anchor="middle" fill="#475569" font-family="Inter, Segoe UI, Arial, sans-serif" font-size="24" font-weight="600">Markdown + Qdrant</text>
  <g transform="translate(240 120) scale(.70)">
    <g transform="translate(520 370)" fill="none" stroke-linecap="round">
          <path d="M118 130l175-70 170 116 130-82M118 130l148 194 197-148 130 176M266 324l327 28" stroke="#cbd5e1" stroke-width="14"/>
          <g fill="#0f9f78" stroke="#fff" stroke-width="12"><circle cx="118" cy="130" r="54"/><circle cx="293" cy="60" r="54"/><circle cx="463" cy="176" r="54"/><circle cx="593" cy="94" r="54"/><circle cx="266" cy="324" r="54"/><circle cx="593" cy="352" r="54"/></g>
          <circle cx="463" cy="176" r="18" fill="#fff" stroke="none"/>
        </g>
  </g>
</svg>
