<svg xmlns="http://www.w3.org/2000/svg" width="1600" height="900" viewBox="0 0 1600 900">
  <defs>
    <linearGradient id="bg" x1="0" y1="0" x2="1" y2="1">
      <stop stop-color="#2b1408"/>
      <stop offset="1" stop-color="#5b2c12"/>
    </linearGradient>
    <radialGradient id="glow" cx="0" cy="0" r="1" gradientTransform="translate(1310 170) rotate(135) scale(690)">
      <stop stop-color="#ef7d32" stop-opacity=".38"/>
      <stop offset="1" stop-color="#ef7d32" stop-opacity="0"/>
    </radialGradient>
    <filter id="shadow" x="-30%" y="-30%" width="160%" height="170%">
      <feDropShadow dx="0" dy="24" stdDeviation="24" flood-color="#020617" flood-opacity=".34"/>
    </filter>
    <pattern id="grid" width="54" height="54" patternUnits="userSpaceOnUse">
      <path d="M54 0H0V54" fill="none" stroke="#fff" stroke-opacity=".045"/>
    </pattern>
  </defs>
  <rect width="1600" height="900" rx="46" fill="url(#bg)"/>
  <rect width="1600" height="900" rx="46" fill="url(#glow)"/>
  <rect width="1600" height="900" rx="46" fill="url(#grid)"/>
  <circle cx="1510" cy="80" r="230" fill="#2563eb" opacity=".10"/>
  <circle cx="760" cy="860" r="310" fill="#ef7d32" opacity=".09"/>
  <rect x="92" y="82" width="314" height="118" rx="28" fill="#fff" opacity=".96"/><text x="124" y="157" fill="#ef7d32" font-family="Inter, Segoe UI, Arial, sans-serif" font-size="42" font-weight="900">e-Orico</text>
  <text x="96" y="302" fill="#2563eb" font-family="Inter, Segoe UI, Arial, sans-serif" font-size="26" font-weight="800" letter-spacing="5">FINTECH SECURITY</text>
  <text x="92" y="402" fill="#fff" font-family="Inter, Segoe UI, Arial, sans-serif" font-size="62" font-weight="800">Mobile Security</text>
  <text x="96" y="466" fill="#cbd5e1" font-family="Inter, Segoe UI, Arial, sans-serif" font-size="29" font-weight="500">Stronger authentication and protected customer data</text>
  <rect x="96" y="540" width="104" height="12" rx="6" fill="#ef7d32"/>
  <rect x="216" y="540" width="54" height="12" rx="6" fill="#2563eb"/>
  
      <g transform="translate(940 135)" filter="url(#shadow)">
        <rect width="400" height="630" rx="58" fill="#0f172a"/>
        <rect x="20" y="20" width="360" height="590" rx="42" fill="#f8fafc"/>
        <path d="M200 82l116 42v92c0 88-49 151-116 184-67-33-116-96-116-184v-92z" fill="#ef7d32"/>
        <path d="M146 224l38 38 76-86" fill="none" stroke="#fff" stroke-width="24" stroke-linecap="round" stroke-linejoin="round"/>
        <rect x="74" y="438" width="252" height="48" rx="16" fill="#e2e8f0"/>
        <rect x="74" y="510" width="252" height="54" rx="18" fill="#2563eb"/>
      </g>
      <circle cx="1325" cy="655" r="92" fill="#2563eb" opacity=".22"/>
      <path d="M1282 655h86M1325 612v86" stroke="#2563eb" stroke-width="18" stroke-linecap="round"/>
    
  <rect x="1.5" y="1.5" width="1597" height="897" rx="44.5" fill="none" stroke="#fff" stroke-opacity=".12" stroke-width="3"/>
</svg>
