<svg xmlns="http://www.w3.org/2000/svg" width="1600" height="900" viewBox="0 0 1600 900">
  <rect width="1600" height="900" fill="#ffffff"/>
  <circle cx="1450" cy="120" r="36" fill="#e60012"/>
  <path d="M100 120h180M1320 780h180" stroke="#dbe3ee" stroke-width="4" stroke-linecap="round"/>
  
      <g transform="translate(610 205)">
        <path d="M0 118S76 8 190 8s190 110 190 110-76 110-190 110S0 118 0 118z" fill="#fff" stroke="#172554" stroke-width="13"/>
        <circle cx="190" cy="118" r="67" fill="#8b5bb0"/>
        <circle cx="190" cy="118" r="25" fill="#fff"/>
      </g><text x="800" y="600" text-anchor="middle" fill="#172554" font-family="Inter, Segoe UI, Arial, sans-serif" font-size="42" font-weight="800" letter-spacing="5">FATIGUE MEASUREMENT</text>
  <g transform="translate(537.0 700)"><rect width="166" height="68" rx="34" fill="#f8fafc" stroke="#dbe3ee" stroke-width="2"/><circle cx="34" cy="34" r="8" fill="#2563eb"/><text x="56" y="43" fill="#334155" font-family="Inter, Segoe UI, Arial, sans-serif" font-size="25" font-weight="700">Vision</text></g><g transform="translate(729.0 700)"><rect width="142" height="68" rx="34" fill="#f8fafc" stroke="#dbe3ee" stroke-width="2"/><circle cx="34" cy="34" r="8" fill="#e11d48"/><text x="56" y="43" fill="#334155" font-family="Inter, Segoe UI, Arial, sans-serif" font-size="25" font-weight="700">ML</text></g><g transform="translate(897.0 700)"><rect width="166" height="68" rx="34" fill="#f8fafc" stroke="#dbe3ee" stroke-width="2"/><circle cx="34" cy="34" r="8" fill="#0f9f78"/><text x="56" y="43" fill="#334155" font-family="Inter, Segoe UI, Arial, sans-serif" font-size="25" font-weight="700">Mobile</text></g>
</svg>
