<svg xmlns="http://www.w3.org/2000/svg" width="1600" height="900" viewBox="0 0 1600 900">
  <defs>
    <linearGradient id="bg" x1="0" y1="0" x2="1" y2="1">
      <stop stop-color="#1d1231"/>
      <stop offset="1" stop-color="#3b2458"/>
    </linearGradient>
    <radialGradient id="glow" cx="0" cy="0" r="1" gradientTransform="translate(1310 170) rotate(135) scale(690)">
      <stop stop-color="#8b5bb0" stop-opacity=".38"/>
      <stop offset="1" stop-color="#8b5bb0" stop-opacity="0"/>
    </radialGradient>
    <filter id="shadow" x="-30%" y="-30%" width="160%" height="170%">
      <feDropShadow dx="0" dy="24" stdDeviation="24" flood-color="#020617" flood-opacity=".34"/>
    </filter>
    <pattern id="grid" width="54" height="54" patternUnits="userSpaceOnUse">
      <path d="M54 0H0V54" fill="none" stroke="#fff" stroke-opacity=".045"/>
    </pattern>
  </defs>
  <rect width="1600" height="900" rx="46" fill="url(#bg)"/>
  <rect width="1600" height="900" rx="46" fill="url(#glow)"/>
  <rect width="1600" height="900" rx="46" fill="url(#grid)"/>
  <circle cx="1510" cy="80" r="230" fill="#f97316" opacity=".10"/>
  <circle cx="760" cy="860" r="310" fill="#8b5bb0" opacity=".09"/>
  <rect x="92" y="82" width="364" height="118" rx="28" fill="#fff" opacity=".96"/><text x="124" y="157" fill="#8b5bb0" font-family="Inter, Segoe UI, Arial, sans-serif" font-size="42" font-weight="900">FATIGUE AI</text>
  <text x="96" y="302" fill="#f97316" font-family="Inter, Segoe UI, Arial, sans-serif" font-size="26" font-weight="800" letter-spacing="5">COMPUTER VISION</text>
  <text x="92" y="402" fill="#fff" font-family="Inter, Segoe UI, Arial, sans-serif" font-size="57" font-weight="800">Fatigue Measurement</text>
  <text x="96" y="466" fill="#cbd5e1" font-family="Inter, Segoe UI, Arial, sans-serif" font-size="29" font-weight="500">Visual analysis translated into actionable insight</text>
  <rect x="96" y="540" width="104" height="12" rx="6" fill="#8b5bb0"/>
  <rect x="216" y="540" width="54" height="12" rx="6" fill="#f97316"/>
  
      <g transform="translate(870 155)" filter="url(#shadow)">
        <rect width="570" height="560" rx="46" fill="#f8fafc"/>
        <circle cx="285" cy="230" r="150" fill="#8b5bb0" opacity=".10"/>
        <path d="M94 230s78-116 191-116 191 116 191 116-78 116-191 116S94 230 94 230z" fill="#fff" stroke="#8b5bb0" stroke-width="20"/>
        <circle cx="285" cy="230" r="72" fill="#8b5bb0"/>
        <circle cx="285" cy="230" r="28" fill="#0f172a"/>
        <path d="M118 408h334" stroke="#cbd5e1" stroke-width="18" stroke-linecap="round"/>
        <path d="M118 408h236" stroke="#f97316" stroke-width="18" stroke-linecap="round"/>
        <rect x="118" y="454" width="150" height="52" rx="18" fill="#8b5bb0"/>
        <rect x="288" y="454" width="164" height="52" rx="18" fill="#e2e8f0"/>
      </g>
    
  <rect x="1.5" y="1.5" width="1597" height="897" rx="44.5" fill="none" stroke="#fff" stroke-opacity=".12" stroke-width="3"/>
</svg>
