<svg xmlns="http://www.w3.org/2000/svg" width="1600" height="900" viewBox="0 0 1600 900">
  <defs>
    <linearGradient id="bg" x1="0" y1="0" x2="1" y2="1">
      <stop stop-color="#06182d"/>
      <stop offset="1" stop-color="#0b355e"/>
    </linearGradient>
    <radialGradient id="glow" cx="0" cy="0" r="1" gradientTransform="translate(1310 170) rotate(135) scale(690)">
      <stop stop-color="#0b62b4" stop-opacity=".38"/>
      <stop offset="1" stop-color="#0b62b4" stop-opacity="0"/>
    </radialGradient>
    <filter id="shadow" x="-30%" y="-30%" width="160%" height="170%">
      <feDropShadow dx="0" dy="24" stdDeviation="24" flood-color="#020617" flood-opacity=".34"/>
    </filter>
    <pattern id="grid" width="54" height="54" patternUnits="userSpaceOnUse">
      <path d="M54 0H0V54" fill="none" stroke="#fff" stroke-opacity=".045"/>
    </pattern>
  </defs>
  <rect width="1600" height="900" rx="46" fill="url(#bg)"/>
  <rect width="1600" height="900" rx="46" fill="url(#glow)"/>
  <rect width="1600" height="900" rx="46" fill="url(#grid)"/>
  <circle cx="1510" cy="80" r="230" fill="#3ddc84" opacity=".10"/>
  <circle cx="760" cy="860" r="310" fill="#0b62b4" opacity=".09"/>
  <rect x="92" y="82" width="434" height="118" rx="28" fill="#fff" opacity=".96"/><text x="124" y="157" fill="#0b62b4" font-family="Inter, Segoe UI, Arial, sans-serif" font-size="42" font-weight="900">GMO CLICK CFD</text>
  <text x="96" y="302" fill="#3ddc84" font-family="Inter, Segoe UI, Arial, sans-serif" font-size="26" font-weight="800" letter-spacing="5">FINTECH MOBILE</text>
  <text x="92" y="402" fill="#fff" font-family="Inter, Segoe UI, Arial, sans-serif" font-size="56" font-weight="800">CFD Trading Platform</text>
  <text x="96" y="466" fill="#cbd5e1" font-family="Inter, Segoe UI, Arial, sans-serif" font-size="29" font-weight="500">Real-time markets, orders, charts, and news</text>
  <rect x="96" y="540" width="104" height="12" rx="6" fill="#0b62b4"/>
  <rect x="216" y="540" width="54" height="12" rx="6" fill="#3ddc84"/>
  
      <g transform="translate(820 150)" filter="url(#shadow)">
        <rect width="650" height="500" rx="42" fill="#f8fafc"/>
        <rect width="650" height="72" rx="42" fill="#e2e8f0"/>
        <circle cx="42" cy="36" r="9" fill="#fb7185"/>
        <circle cx="70" cy="36" r="9" fill="#fbbf24"/>
        <circle cx="98" cy="36" r="9" fill="#34d399"/>
        <rect x="36" y="108" width="170" height="356" rx="24" fill="#e2e8f0"/>
        <rect x="66" y="146" width="110" height="14" rx="7" fill="#0b62b4"/>
        <rect x="66" y="190" width="92" height="11" rx="6" fill="#64748b"/>
        <rect x="66" y="224" width="112" height="11" rx="6" fill="#94a3b8"/>
        <rect x="66" y="258" width="76" height="11" rx="6" fill="#94a3b8"/>
        <rect x="238" y="108" width="174" height="126" rx="24" fill="#0b62b4"/>
        <rect x="438" y="108" width="174" height="126" rx="24" fill="#3ddc84"/>
        <path d="M266 202l32-38 32 18 42-50" fill="none" stroke="#fff" stroke-width="12" stroke-linecap="round" stroke-linejoin="round"/>
        <circle cx="488" cy="168" r="34" fill="#fff" opacity=".92"/>
        <path d="M488 138v30l24 18" fill="none" stroke="#3ddc84" stroke-width="12" stroke-linecap="round"/>
        <rect x="238" y="264" width="374" height="200" rx="24" fill="#e2e8f0"/>
        <path d="M270 411l70-72 58 42 74-88 108 92" fill="none" stroke="#0b62b4" stroke-width="15" stroke-linecap="round" stroke-linejoin="round"/>
      </g>
    
  <rect x="1.5" y="1.5" width="1597" height="897" rx="44.5" fill="none" stroke="#fff" stroke-opacity=".12" stroke-width="3"/>
</svg>
