<svg xmlns="http://www.w3.org/2000/svg" width="1600" height="900" viewBox="0 0 1600 900">
  <rect width="1600" height="900" fill="#ffffff"/>
  <circle cx="1450" cy="120" r="36" fill="#e60012"/>
  <path d="M100 120h180M1320 780h180" stroke="#dbe3ee" stroke-width="4" stroke-linecap="round"/>
  
        <g transform="translate(690 185)">
          <path d="M110 0c61 0 110 49 110 110 0 86-110 211-110 211S0 196 0 110C0 49 49 0 110 0z" fill="#0f9f78"/>
          <circle cx="110" cy="108" r="52" fill="#fff"/>
          <path d="M110 78v60M80 108h60" stroke="#0f9f78" stroke-width="18" stroke-linecap="round"/>
        </g><text x="800" y="600" text-anchor="middle" fill="#172554" font-family="Inter, Segoe UI, Arial, sans-serif" font-size="42" font-weight="800" letter-spacing="5">PHARMACY SEARCH</text>
  <g transform="translate(508.5 700)"><rect width="185" height="68" rx="34" fill="#f8fafc" stroke="#dbe3ee" stroke-width="2"/><circle cx="34" cy="34" r="8" fill="#2563eb"/><text x="56" y="43" fill="#334155" font-family="Inter, Segoe UI, Arial, sans-serif" font-size="25" font-weight="700">Android</text></g><g transform="translate(719.5 700)"><rect width="142" height="68" rx="34" fill="#f8fafc" stroke="#dbe3ee" stroke-width="2"/><circle cx="34" cy="34" r="8" fill="#e11d48"/><text x="56" y="43" fill="#334155" font-family="Inter, Segoe UI, Arial, sans-serif" font-size="25" font-weight="700">Maps</text></g><g transform="translate(887.5 700)"><rect width="204" height="68" rx="34" fill="#f8fafc" stroke="#dbe3ee" stroke-width="2"/><circle cx="34" cy="34" r="8" fill="#0f9f78"/><text x="56" y="43" fill="#334155" font-family="Inter, Segoe UI, Arial, sans-serif" font-size="25" font-weight="700">Location</text></g>
</svg>
