<svg xmlns="http://www.w3.org/2000/svg" width="1600" height="900" viewBox="0 0 1600 900">
  <defs>
    <linearGradient id="bg" x1="0" y1="0" x2="1" y2="1">
      <stop stop-color="#071a35"/>
      <stop offset="1" stop-color="#123c69"/>
    </linearGradient>
    <radialGradient id="glow" cx="0" cy="0" r="1" gradientTransform="translate(1310 170) rotate(135) scale(690)">
      <stop stop-color="#0f5da8" stop-opacity=".38"/>
      <stop offset="1" stop-color="#0f5da8" stop-opacity="0"/>
    </radialGradient>
    <filter id="shadow" x="-30%" y="-30%" width="160%" height="170%">
      <feDropShadow dx="0" dy="24" stdDeviation="24" flood-color="#020617" flood-opacity=".34"/>
    </filter>
    <pattern id="grid" width="54" height="54" patternUnits="userSpaceOnUse">
      <path d="M54 0H0V54" fill="none" stroke="#fff" stroke-opacity=".045"/>
    </pattern>
  </defs>
  <rect width="1600" height="900" rx="46" fill="url(#bg)"/>
  <rect width="1600" height="900" rx="46" fill="url(#glow)"/>
  <rect width="1600" height="900" rx="46" fill="url(#grid)"/>
  <circle cx="1510" cy="80" r="230" fill="#38bdf8" opacity=".10"/>
  <circle cx="760" cy="860" r="310" fill="#0f5da8" opacity=".09"/>
  <rect x="92" y="82" width="494" height="118" rx="28" fill="#fff" opacity=".96"/><text x="124" y="157" fill="#0f5da8" font-family="Inter, Segoe UI, Arial, sans-serif" font-size="42" font-weight="900">SEIKYO SHIMBUN</text>
  <text x="96" y="302" fill="#38bdf8" font-family="Inter, Segoe UI, Arial, sans-serif" font-size="26" font-weight="800" letter-spacing="5">DIGITAL PUBLISHING</text>
  <text x="92" y="402" fill="#fff" font-family="Inter, Segoe UI, Arial, sans-serif" font-size="56" font-weight="800">Seikyo Digital Edition</text>
  <text x="96" y="466" fill="#cbd5e1" font-family="Inter, Segoe UI, Arial, sans-serif" font-size="29" font-weight="500">A focused reading experience across mobile platforms</text>
  <rect x="96" y="540" width="104" height="12" rx="6" fill="#0f5da8"/>
  <rect x="216" y="540" width="54" height="12" rx="6" fill="#38bdf8"/>
  
      <g transform="translate(900 145)" filter="url(#shadow)">
        <rect width="500" height="620" rx="48" fill="#0f172a"/>
        <rect x="22" y="22" width="456" height="576" rx="34" fill="#f8fafc"/>
        <rect x="58" y="66" width="384" height="88" rx="22" fill="#0f5da8"/>
        <rect x="58" y="190" width="170" height="278" rx="24" fill="#dbeafe"/>
        <rect x="250" y="190" width="192" height="128" rx="24" fill="#38bdf8" opacity=".18"/>
        <rect x="250" y="342" width="192" height="126" rx="24" fill="#e2e8f0"/>
        <path d="M92 236h100M92 270h72M92 394h98M280 234h120M280 270h82M280 386h126M280 420h94" stroke="#334155" stroke-width="13" stroke-linecap="round"/>
        <rect x="58" y="504" width="384" height="48" rx="16" fill="#38bdf8"/>
      </g>
    
  <rect x="1.5" y="1.5" width="1597" height="897" rx="44.5" fill="none" stroke="#fff" stroke-opacity=".12" stroke-width="3"/>
</svg>
