<svg xmlns="http://www.w3.org/2000/svg" width="1600" height="900" viewBox="0 0 1600 900">
  <rect width="1600" height="900" fill="#ffffff"/>
  <circle cx="1450" cy="120" r="36" fill="#e60012"/>
  <path d="M100 120h180M1320 780h180" stroke="#dbe3ee" stroke-width="4" stroke-linecap="round"/>
  
        <g transform="translate(610 215)">
          <path d="M34 0h312a34 34 0 0 1 34 34v46a34 34 0 0 0 0 68v46a34 34 0 0 1-34 34H34a34 34 0 0 1-34-34v-46a34 34 0 0 0 0-68V34A34 34 0 0 1 34 0z" fill="#f8fafc" stroke="#0f172a" stroke-width="10"/>
          <path d="M78 68h150M78 112h104M286 48v132" stroke="#2563eb" stroke-width="15" stroke-linecap="round"/>
        </g><text x="800" y="600" text-anchor="middle" fill="#172554" font-family="Inter, Segoe UI, Arial, sans-serif" font-size="42" font-weight="800" letter-spacing="5">TICKETING &amp; PAYMENT</text>
  <g transform="translate(539.5 700)"><rect width="142" height="68" rx="34" fill="#f8fafc" stroke="#dbe3ee" stroke-width="2"/><circle cx="34" cy="34" r="8" fill="#2563eb"/><text x="56" y="43" fill="#334155" font-family="Inter, Segoe UI, Arial, sans-serif" font-size="25" font-weight="700">QR</text></g><g transform="translate(707.5 700)"><rect width="185" height="68" rx="34" fill="#f8fafc" stroke="#dbe3ee" stroke-width="2"/><circle cx="34" cy="34" r="8" fill="#e11d48"/><text x="56" y="43" fill="#334155" font-family="Inter, Segoe UI, Arial, sans-serif" font-size="25" font-weight="700">Payment</text></g><g transform="translate(918.5 700)"><rect width="142" height="68" rx="34" fill="#f8fafc" stroke="#dbe3ee" stroke-width="2"/><circle cx="34" cy="34" r="8" fill="#0f9f78"/><text x="56" y="43" fill="#334155" font-family="Inter, Segoe UI, Arial, sans-serif" font-size="25" font-weight="700">AWS</text></g>
</svg>
