<svg xmlns="http://www.w3.org/2000/svg" width="1600" height="900" viewBox="0 0 1600 900">
  <defs>
    <linearGradient id="bg" x1="0" y1="0" x2="1" y2="1">
      <stop stop-color="#150c32"/>
      <stop offset="1" stop-color="#31205d"/>
    </linearGradient>
    <radialGradient id="glow" cx="0" cy="0" r="1" gradientTransform="translate(1310 170) rotate(135) scale(690)">
      <stop stop-color="#7c3aed" stop-opacity=".38"/>
      <stop offset="1" stop-color="#7c3aed" stop-opacity="0"/>
    </radialGradient>
    <filter id="shadow" x="-30%" y="-30%" width="160%" height="170%">
      <feDropShadow dx="0" dy="24" stdDeviation="24" flood-color="#020617" flood-opacity=".34"/>
    </filter>
    <pattern id="grid" width="54" height="54" patternUnits="userSpaceOnUse">
      <path d="M54 0H0V54" fill="none" stroke="#fff" stroke-opacity=".045"/>
    </pattern>
  </defs>
  <rect width="1600" height="900" rx="46" fill="url(#bg)"/>
  <rect width="1600" height="900" rx="46" fill="url(#glow)"/>
  <rect width="1600" height="900" rx="46" fill="url(#grid)"/>
  <circle cx="1510" cy="80" r="230" fill="#06b6d4" opacity=".10"/>
  <circle cx="760" cy="860" r="310" fill="#7c3aed" opacity=".09"/>
  <rect x="92" y="82" width="118" height="118" rx="28" fill="#7c3aed"/><path d="M128 141h46M151 118v46" stroke="#fff" stroke-width="14" stroke-linecap="round"/>
  <text x="96" y="302" fill="#06b6d4" font-family="Inter, Segoe UI, Arial, sans-serif" font-size="26" font-weight="800" letter-spacing="5">CLOUD COMMERCE</text>
  <text x="92" y="402" fill="#fff" font-family="Inter, Segoe UI, Arial, sans-serif" font-size="60" font-weight="800">Ticketing &amp; Payments</text>
  <text x="96" y="466" fill="#cbd5e1" font-family="Inter, Segoe UI, Arial, sans-serif" font-size="29" font-weight="500">Secure transactions with dependable event operations</text>
  <rect x="96" y="540" width="104" height="12" rx="6" fill="#7c3aed"/>
  <rect x="216" y="540" width="54" height="12" rx="6" fill="#06b6d4"/>
  
      <g transform="translate(880 205) rotate(-7)" filter="url(#shadow)">
        <path d="M40 0h520a40 40 0 0 1 40 40v90a42 42 0 0 0 0 84v90a40 40 0 0 1-40 40H40a40 40 0 0 1-40-40v-90a42 42 0 0 0 0-84V40A40 40 0 0 1 40 0z" fill="#fff"/>
        <rect x="56" y="54" width="220" height="28" rx="14" fill="#7c3aed"/>
        <rect x="56" y="112" width="310" height="14" rx="7" fill="#94a3b8"/>
        <rect x="56" y="150" width="250" height="14" rx="7" fill="#cbd5e1"/>
        <path d="M424 70v210" stroke="#cbd5e1" stroke-width="5" stroke-dasharray="13 14"/>
        <rect x="466" y="88" width="82" height="82" rx="15" fill="#06b6d4" opacity=".18"/>
        <path d="M486 129l15 15 30-34" fill="none" stroke="#06b6d4" stroke-width="12" stroke-linecap="round" stroke-linejoin="round"/>
        <path d="M58 250h310" stroke="#1e293b" stroke-width="22" stroke-linecap="round" stroke-dasharray="5 16"/>
      </g>
    
  <rect x="1.5" y="1.5" width="1597" height="897" rx="44.5" fill="none" stroke="#fff" stroke-opacity=".12" stroke-width="3"/>
</svg>
