<?xml version="1.0" encoding="UTF-8"?><svg id="_レイヤー_1" xmlns="http://www.w3.org/2000/svg" width="137" height="32" viewBox="0 0 137 32"><path d="M75.05,9.1v3l.9-.9c.8-.8,2.7-2.1,6.7-2.2v4.3c-1.5.1-6.1.8-7.61,5.3v12.31h-5V9.1h5Z" fill="#231815"/><path d="M84.26,9.1v21.82h5V9.1h-5Z" fill="#231815"/><path d="M84.26,2.99v4.3h5V2.99h-5Z" fill="#231815"/><path d="M125.49,8.49c-6.3,0-11.51,5.1-11.51,11.51s5.1,11.51,11.51,11.51,11.51-5.1,11.51-11.51-5.2-11.51-11.51-11.51ZM125.49,26.51c-3.6,0-6.5-2.9-6.5-6.5s2.9-6.5,6.5-6.5,6.5,2.9,6.5,6.5-2.9,6.5-6.5,6.5Z" fill="#231815"/><path d="M53.94,1.59c-8.21,0-14.91,6.7-14.91,14.91s6.7,14.91,14.91,14.91,14.91-6.7,14.91-14.91c.1-8.21-6.6-14.91-14.91-14.91ZM53.94,26.51c-5.5,0-10.01-4.5-10.01-10.01s4.5-10.01,10.01-10.01,10.01,4.5,10.01,10.01-4.5,10.01-10.01,10.01Z" fill="#231815"/><path d="M108.18,23.51c-1.2,1.8-3.2,3-5.4,3-3.6,0-6.5-2.9-6.5-6.5s2.9-6.5,6.5-6.5c2.3,0,4.3,1.2,5.4,3h5.4c-1.5-4.6-5.8-7.91-10.91-7.91-6.3,0-11.51,5.1-11.51,11.51s5.1,11.51,11.51,11.51c5.1,0,9.41-3.3,10.91-7.91h-5.4v-.2Z" fill="#231815"/><path d="M25.12,8.09c0-.6-.2-7.71-9.21-7.71C8.11.29,0,9,0,19.2c0,5.5,3.1,12.21,11.61,12.21,4.5,0,7.51-1,9.31-3.1-.4-1.7-.8-3.1-.8-3.1,0,0-2.5,2.1-7.11,2.1-5.9,0-8.21-4.2-7.81-10.01v-.1c.1,0,.2.1.2.1,14.41.4,19.71-3.5,19.71-9.21ZM15.41,4.49c4.6-.7,4.8,3,4.8,3.3,0,3.4-4.5,6.1-14.41,6.1,1.3-4.6,4.5-8.71,9.61-9.41Z" fill="#ea6000"/><rect x="26.12" y="14.7" width="9.21" height="4.3" fill="#ea6000"/></svg>