<svg xmlns="http://www.w3.org/2000/svg" width="187" height="68.088" viewBox="0 0 187 68.088">
  <g id="グループ_932" data-name="グループ 932" transform="translate(-155.904 -269.292)">
    <g id="グループ_1" data-name="グループ 1" transform="translate(155.905 269.508)">
      <rect id="長方形_5" data-name="長方形 5" width="187" height="66.436" transform="translate(0 0)" fill="none"/>
      <line id="線_3" data-name="線 3" x2="187" transform="translate(0 33.218)" fill="none" stroke="rgba(0,0,0,0)" stroke-width="1"/>
      <line id="線_4" data-name="線 4" y2="66.41" transform="translate(93.5 0)" fill="none" stroke="rgba(0,0,0,0)" stroke-width="1"/>
    </g>
    <g id="グループ_6" data-name="グループ 6" transform="translate(155.904 269.292)">
      <g id="グループ_4" data-name="グループ 4">
        <g id="グループ_2" data-name="グループ 2">
          <path id="パス_1" data-name="パス 1" d="M321.947,314.887a6.186,6.186,0,0,0,4.285-1.62A6.022,6.022,0,0,0,328,308.849v-33.18a5.962,5.962,0,0,0-1.763-4.413,6.423,6.423,0,0,0-8.563-.013,5.99,5.99,0,0,0-1.768,4.426v33.18a6.008,6.008,0,0,0,1.768,4.419A6.173,6.173,0,0,0,321.947,314.887Z" transform="translate(-210.352 -269.402)" fill="#284db4"/>
          <path id="パス_2" data-name="パス 2" d="M189.808,280.076c.926-.03,1.165-.726,1.281-1.376s.109-7.054,0-7.707-.356-1.333-1.277-1.379H157.6a1.651,1.651,0,0,0-1.7,1.7v42.061a1.65,1.65,0,0,0,1.7,1.7h32.2c.926-.039,1.165-.727,1.281-1.364.109-.654.109-7.065,0-7.72s-.356-1.337-1.277-1.37H168.955v-7.439h19.083c.942-.039,1.185-.737,1.287-1.372.113-.658.113-6.28,0-6.937-.093-.634-.345-1.319-1.271-1.366,0,0-13.621,0-19.1,0v-7.424Z" transform="translate(-155.904 -269.402)" fill="#284db4"/>
          <path id="パス_3" data-name="パス 3" d="M237.906,269.292c-14.908,0-17.68.313-17.787.332-1.149.147-1.713.708-1.713,1.709v41.816c0,1,.564,1.563,1.713,1.7.107.011,2.878.325,17.787.325,3.453,0,24.52-.51,24.52-22.941S241.359,269.292,237.906,269.292Zm-1,35.217-5.45-.117v-24.3l5.45-.121h0c4.241,0,12.528.3,12.528,12.27S241.148,304.509,236.906,304.509Z" transform="translate(-177.174 -269.292)" fill="#284db4"/>
        </g>
        <g id="グループ_3" data-name="グループ 3" transform="translate(84.98 20.851)">
          <path id="パス_4" data-name="パス 4" d="M415.906,303.065c-.044-1.165-.921-1.465-1.713-1.594-.816-.137-8.823-.137-9.647,0-.789.129-1.654.429-1.7,1.589V319.9a29.184,29.184,0,0,0,.835,7.707s-20.192-24.4-20.325-24.529a5.411,5.411,0,0,0-2.265-1.441c-1.369-.369-8.291-.257-8.965-.146a1.712,1.712,0,0,0-1.7,1.575v42.068h0c.036,1.165.914,1.472,1.714,1.606s8.819.134,9.628,0,1.663-.441,1.724-1.594V328.3a28.907,28.907,0,0,0-.846-7.705s20.2,24.4,20.321,24.531a5.6,5.6,0,0,0,2.267,1.448c1.383.361,8.306.254,8.964.154a1.738,1.738,0,0,0,1.713-1.594V303.065Z" transform="translate(-313.886 -301.059)" fill="#f08d00"/>
          <path id="パス_5" data-name="パス 5" d="M337.955,321.519c0-7.439-3.6-15.745-7.945-18.967-4.169-3.11-7.436-1.08-8.552.059a6.391,6.391,0,0,0,.073,8.56,14.534,14.534,0,1,1-20.4,0,6.4,6.4,0,0,0,.081-8.56c-1.117-1.139-4.381-3.17-8.569-.059-4.311,3.223-7.926,11.529-7.926,18.967a26.617,26.617,0,1,0,53.233,0Z" transform="translate(-284.722 -300.9)" fill="#f08d00"/>
        </g>
      </g>
    </g>
  </g>
</svg>
