<svg width="230" height="32" viewBox="0 0 230 32" fill="none" xmlns="http://www.w3.org/2000/svg">
    <path fill-rule="evenodd" clip-rule="evenodd" d="M222.018 31.441h-74.425L155.575 1H230l-7.982 30.441z" fill="#1F1F99"/>
    <path fill-rule="evenodd" clip-rule="evenodd" d="m207.123 8.822-3.964 14.813h3.486c1.304 0 2.264-.072 2.881-.214a5.903 5.903 0 0 0 2.134-.93c.616-.438 1.216-1.157 1.8-2.16.583-1 1.107-2.366 1.57-4.095.462-1.729.659-3.056.591-3.981-.067-.926-.316-1.648-.745-2.167-.429-.518-1.056-.87-1.879-1.052-.614-.142-1.873-.214-3.776-.214h-2.098zm-3.657-3.784h8.533c1.925 0 3.354.143 4.287.427 1.254.387 2.231 1.074 2.935 2.06.703.986 1.116 2.194 1.239 3.623.122 1.429-.097 3.19-.658 5.286-.492 1.84-1.153 3.427-1.983 4.76-1.014 1.626-2.191 2.943-3.534 3.95-1.014.763-2.267 1.358-3.759 1.785-1.115.315-2.535.473-4.259.473h-8.786l5.985-22.364zM177.919 27.402l5.985-22.364h15.852l-1.012 3.784h-11.183l-1.417 5.293h9.654l-1.013 3.783h-9.653l-2.544 9.504h-4.669zM172.356 19.18l4.156 1.388c-1.348 2.44-2.987 4.254-4.918 5.438-1.931 1.185-4.138 1.777-6.62 1.777-3.07 0-5.323-1.014-6.757-3.043-1.434-2.029-1.68-4.803-.738-8.321.996-3.723 2.764-6.613 5.302-8.673 2.539-2.06 5.427-3.089 8.667-3.089 2.828 0 4.909.809 6.243 2.426.796.956 1.217 2.329 1.264 4.118l-4.908 1.068c.037-1.159-.288-2.074-.976-2.745-.688-.672-1.652-1.007-2.893-1.007-1.714 0-3.264.595-4.65 1.785-1.386 1.19-2.435 3.117-3.148 5.781-.756 2.827-.77 4.84-.039 6.041.73 1.2 1.937 1.8 3.619 1.8 1.24 0 2.41-.381 3.508-1.144 1.098-.763 2.061-1.963 2.888-3.6z" fill="#fff"/>
    <path fill-rule="evenodd" clip-rule="evenodd" d="M144.263 8.915h-13.7a.074.074 0 0 0-.069.047c-.805 2.19-2.946 3.737-4.645 4.133a.073.073 0 0 0-.057.072v3.15c0 .022.009.042.026.056.013.012.03.018.047.018h.012c3.051-.48 5.554-2.071 6.697-4.257l.021-.04h7.993l-.008.081c-.51 5.271-4.779 7.989-13.051 8.31a.074.074 0 0 0-.071.073l-.002 2.893a.073.073 0 0 0 .073.073h.002c5.462-.121 9.662-1.276 12.482-3.43 2.89-2.209 4.345-5.482 4.324-9.729V8.99a.074.074 0 0 0-.074-.074zM123.852 12.158a.074.074 0 0 0-.053-.022h-3.345a.074.074 0 0 0-.074.07c-.291 6.412-1.213 7.945-9.615 8.286a.074.074 0 0 0-.071.074v2.888a.074.074 0 0 0 .074.074c9.522-.039 12.951-3 13.105-11.317a.07.07 0 0 0-.021-.053z" fill="#000"/>
    <path fill-rule="evenodd" clip-rule="evenodd" d="M117.383 12.157a.074.074 0 0 0-.052-.022h-2.815a.074.074 0 0 0-.074.074v5.466a.075.075 0 0 0 .074.074l.031-.001c1.952-.104 2.843-.15 2.858-5.54a.074.074 0 0 0-.022-.051zM112.161 15.577h-.996a.157.157 0 0 1-.154-.14l-.178-1.765a.174.174 0 0 1 .107-.176l1.239-.495a.074.074 0 0 0 .046-.069v-.723a.074.074 0 0 0-.073-.074h-3.313a.074.074 0 0 0-.074.081l.552 5.475a.075.075 0 0 0 .074.067h2.77a.074.074 0 0 0 .074-.074V15.65a.074.074 0 0 0-.074-.074z" fill="#DC1C26"/>
    <path fill-rule="evenodd" clip-rule="evenodd" d="M106.758 8.914h-3.685a.074.074 0 0 0-.074.074v4.455c0 5.788-2.518 6.455-9.712 6.884a.073.073 0 0 0-.07.073v3.05c0 .02.009.04.023.054.014.013.032.02.052.02h.001c10.123-.284 13.539-2.771 13.539-9.857v-4.68a.074.074 0 0 0-.074-.073zM95.021 17.307V8.988a.074.074 0 0 0-.073-.074h-3.61a.074.074 0 0 0-.073.074v8.319c0 .04.033.074.073.074h3.61c.04 0 .073-.034.073-.074zM89.274 8.915h-13.7c-.03 0-.058.018-.069.047-.805 2.19-2.946 3.737-4.645 4.133a.074.074 0 0 0-.057.072v3.15a.074.074 0 0 0 .073.074h.012c3.05-.48 5.554-2.071 6.697-4.257l.021-.04H85.6l-.008.081c-.51 5.271-4.779 7.989-13.051 8.31a.074.074 0 0 0-.071.073l-.002 2.893a.073.073 0 0 0 .074.073h.001c5.462-.121 9.662-1.276 12.482-3.43 2.89-2.209 4.345-5.482 4.324-9.729V8.99a.074.074 0 0 0-.074-.074z" fill="#000"/>
    <path fill-rule="evenodd" clip-rule="evenodd" d="M56.857 21.243c-3.908 0-7.076-2.265-7.076-5.06 0-2.794 3.168-5.06 7.076-5.06 3.91 0 7.078 2.266 7.078 5.06 0 2.795-3.169 5.06-7.078 5.06zm0-12.072c-6.438 0-11.66 3.14-11.66 7.013 0 3.872 5.222 7.01 11.66 7.01 6.44 0 11.66-3.138 11.66-7.01 0-3.873-5.22-7.013-11.66-7.013zM34.26 22.094h.927a.169.169 0 0 0 .13-.073l3.846-6.303 2.09 7.212a.121.121 0 0 0 .11.082h4.035c.048 0 .075-.037.06-.082L41.202 9.437a.125.125 0 0 0-.111-.082h-1.516a.177.177 0 0 0-.132.072l-5.184 8.05-5.184-8.05a.177.177 0 0 0-.133-.072h-1.515a.124.124 0 0 0-.112.082L23.058 22.93c-.014.045.013.082.06.082h4.036a.122.122 0 0 0 .11-.082l2.09-7.212 3.846 6.303c.024.04.083.073.13.073h.93zM23.242 15.373s0-.002-.002-.003a.085.085 0 0 0-.082-.067H11.66a1.102 1.102 0 0 0 0 2.205h6.832c-.814 2.152-3.564 3.736-6.832 3.736-3.91 0-7.078-2.265-7.078-5.06 0-2.794 3.169-5.06 7.078-5.06 2.134 0 4.048.676 5.346 1.746l.013.01c.014.01.03.015.048.015h4.698a.086.086 0 0 0 .086-.086c0-.02-.008-.04-.02-.054l-.008-.009c-2-2.133-5.802-3.574-10.163-3.574C5.22 9.172 0 12.312 0 16.185c0 3.872 5.22 7.01 11.66 7.01 6.439 0 11.66-3.138 11.66-7.01 0-.275-.027-.546-.078-.812z" fill="#005BAC"/>
</svg>
