<?xml version="1.0" encoding="UTF-8"?>
<svg id="_レイヤー_2" data-name="レイヤー 2" xmlns="http://www.w3.org/2000/svg" viewBox="0 0 235.9 19.84">
  <defs>
    <style>
      .cls-1 {
        fill: #004263;
      }
    </style>
  </defs>
  <g id="_レイヤー_1-2" data-name="レイヤー 1">
    <g>
      <g>
        <polygon class="cls-1" points="189.5 1.2 183.03 12.47 176.45 1.2 173.15 1.2 173.15 19.84 176.44 19.84 176.44 6.86 182.46 17.6 183.12 17.6 189.09 6.97 189.09 19.84 192.38 19.84 192.38 1.2 189.5 1.2"/>
        <path class="cls-1" d="M121.96,19.84h4.67l-6.47-7.05h1.97c1.55,0,3.02-1.48,3.02-3.02v-5.55c0-1.55-1.48-3.02-3.02-3.02h-12.12v18.64h3.2v-7.05h3.09l5.66,7.05ZM113.21,4.42h7.32c.94,0,1.48.54,1.48,1.48v2.2c0,.94-.54,1.48-1.48,1.48h-7.32v-5.16Z"/>
        <path class="cls-1" d="M86.21,4.23c0-1.55-1.48-3.02-3.02-3.02h-12.12v18.64h3.2v-7.05h8.92c1.55,0,3.02-1.48,3.02-3.02v-5.55ZM81.59,9.58h-7.32v-5.16h7.32c.94,0,1.48.54,1.48,1.48v2.2c0,.94-.54,1.48-1.48,1.48Z"/>
        <path class="cls-1" d="M102.72,19.84h3.68L98.37,1.2h-3.18l-7.89,18.64h3.23l1.73-4.22h8.77l1.7,4.22ZM93.57,12.4l3.11-7.6,3.05,7.6h-6.16Z"/>
        <path class="cls-1" d="M157.41,5.82v-1.6c0-1.67-1.35-3.02-3.02-3.02h-8.85c-1.67,0-3.02,1.35-3.02,3.02l.02,4.63c0,1.55,1.48,3.02,3.02,3.02h8.99v4.75h-9.55s0-2.48,0-2.48l-3.06.71v1.97c0,1.67,1.35,3.02,3.02,3.02h9.6c1.67,0,3.02-1.35,3.02-3.02l-.02-5.14c0-1.55-1.48-3.02-3.02-3.02h-8.99v-4.24s8.81,0,8.81,0v2.11l3.06-.71Z"/>
        <rect class="cls-1" x="132.23" y="1.2" width="3.29" height="18.64"/>
        <rect class="cls-1" x="200.16" y="1.2" width="3.29" height="18.64"/>
        <polygon class="cls-1" points="222.91 19.84 228.16 19.84 217.73 10 227.01 1.2 222.29 1.2 214.52 8.98 214.52 1.2 211.24 1.2 211.24 19.84 214.52 19.84 214.52 13.05 215.25 12.36 222.91 19.84"/>
        <rect class="cls-1" x="232.61" y="1.2" width="3.29" height="18.64"/>
      </g>
      <path class="cls-1" d="M38.82,16.84c-3.82,0-6.92-3.11-6.92-6.92s3.1-6.92,6.92-6.92,6.92,3.1,6.92,6.92-3.1,6.92-6.92,6.92ZM12.45,16.84c-3.82,0-6.92-3.11-6.92-6.92s3.1-6.92,6.92-6.92,6.92,3.1,6.92,6.92-3.1,6.92-6.92,6.92M50.55,3.27h-3.77s-.49.1-1.11-.49c-1.79-1.71-4.2-2.77-6.86-2.77-3.37,0-6.3,1.57-8.23,4.55-.65.99-1.45.91-1.86.77-1.07-.39-1.92-.87-3.09-.87s-2.02.48-3.09.87c-.41.15-1.21.23-1.86-.77C18.74,1.57,15.81,0,12.45,0c-2.66,0-5.07,1.07-6.86,2.77-.62.59-1.11.49-1.11.49H.71c-.39,0-.71.35-.71.79v2.33c0,.44.32.79.71.79h2.21c-.25.87-.39,1.79-.39,2.74,0,5.47,4.45,9.92,9.92,9.92,4.34,0,8.02-2.8,9.37-6.69.4-.12.79-.48,1.07-1.4.39-1.26.48-1.87.18-2.45-.17-.34-.58-.67-.83-.85-.15-.21.08-.43.15-.47.96-.61,2.07-.93,3.24-.93s2.28.33,3.24.93c.07.04.3.26.15.47-.25.17-.66.5-.83.85-.29.58-.21,1.18.18,2.45.29.92.67,1.28,1.08,1.4,1.34,3.89,5.03,6.69,9.37,6.69,5.47,0,9.92-4.45,9.92-9.92,0-.95-.14-1.87-.39-2.74h2.2c.39,0,.71-.36.71-.79v-2.33c0-.44-.32-.79-.71-.79"/>
    </g>
  </g>
</svg>