<svg xmlns="http://www.w3.org/2000/svg" width="368.5" height="106.35" viewBox="0 0 368.5 106.35">
  <defs>
    <style>
      .b2c07b20-4407-43c4-91b5-8273941bf731 {
        isolation: isolate;
      }

      .b83c570e-2831-4c1b-96dd-fed01c676097 {
        fill: #003686;
      }

      .a316c075-832b-4654-98ca-c7218b3ade60 {
        mix-blend-mode: multiply;
      }

      .a4bde2e1-13eb-48af-acc4-069339a7230c {
        fill: #5eb7e8;
      }
    </style>
  </defs>
  <title>logo</title>
  <g class="b2c07b20-4407-43c4-91b5-8273941bf731">
    <g id="b0dcfce2-e71b-44f0-bf3d-f4d0a73640ea" data-name="レイヤー 1">
      <g>
        <path class="b83c570e-2831-4c1b-96dd-fed01c676097" d="M468.66,325.05c-1,.23-2.67.59-4.55,1v-1a23.36,23.36,0,0,0,3.31-3v-1.74H463.2c.6-.61,1.32-1.25,1.89-1.9h3.07v-2.12h-1.38a30.68,30.68,0,0,0,3.21-5.28h-3a25.7,25.7,0,0,1-3.37,5.28h-.44V313.7h2.09v-2.11h-2.09V309h-2.85v2.56h-3.89v2.11h3.89v2.63h-5v2.12h6.39a29.67,29.67,0,0,1-6.39,5v2.72a30.53,30.53,0,0,0,5.73-3.84h2.55a15.29,15.29,0,0,1-2.36,2v2.27c-2.32.45-4.57.86-5.92,1v2.23c1.09-.1,3.42-.53,5.92-1v1.84c0,.52-.27.77-.83.77h-1.87l.18,2.11h2.67c1.73,0,2.7-.9,2.7-2.5v-2.81c1.78-.37,3.43-.73,4.55-1Zm-34.92-2.78h2.81V312.16h1.52V310h-13.5v2.12h1.52v7.78l-1.93.22v2c2-.17,6.29-.64,9.58-1.21Zm-4.84-10.11h4.84v1.14H428.9Zm0,2.93h4.84v1.17H428.9Zm0,4.52v-1.55h4.84v.86C432.32,319.16,430.6,319.4,428.9,319.61ZM449.31,310H439.1v11.09h10.21Zm-2.85,9H442v-6.86h4.5Zm58.12-5.55a64.57,64.57,0,0,0,8-1.62v-2.27a76,76,0,0,1-10.82,2.06v10.48a20.6,20.6,0,0,1-3.19,11.44h3.27c1.31-1.9,2.78-6.3,2.78-11.44v-2.73H508v14.17h2.86V319.39H513v-2.11h-8.39ZM496.36,324h3.71v-2.11h-5v-2h5.24v-2.11h-2.8a28.8,28.8,0,0,1,.83-4h2v-2.11h-5.24V309h-2.86v2.65H487v2.11h2a28.8,28.8,0,0,1,.83,4h-3.12v2.11h5.56v2h-5V324h3.51a19.16,19.16,0,0,1-4.11,5.3v3a19.54,19.54,0,0,0,5.56-5.92v7.22h2.86v-7.33a21.53,21.53,0,0,1,2,3.07H500A31.91,31.91,0,0,0,496.36,324Zm-1.53-6.19h-2.31c-.15-1.16-.53-3.3-.68-4h3.69C495.37,314.51,495,316.65,494.83,317.81Zm43,2.29H523.56v2.11h1.86v7.66l-2.22.18v2.07a93.07,93.07,0,0,0,9.94-1.12v1.91H536v-10.7h1.87Zm-4.73,8.82c-1.39.25-3.13.47-4.86.66v-1.47h4.86Zm0-2.66h-4.86v-1.07h4.86Zm0-2.92h-4.86v-1.13h4.86ZM529.49,310h-11v23.52h2.86V318.83h8.17Zm-2.85,6.68h-5.32v-1.28h5.32Zm0-3.29h-5.32v-1.27h5.32Zm5.29,5.4h8.17V331a.76.76,0,0,1-.83.85h-1.53l.17,2.11h2.34c1.73,0,2.7-.9,2.7-2.51V310h-11Zm2.85-6.67h5.32v1.27h-5.32Zm0,3.28h5.32v1.28h-5.32ZM474.6,309h-2.87c-.62,4.19-1.69,7.75-4.29,11.1h3.22a19.37,19.37,0,0,0,2.6-5.1h4c0,4.08-.69,7.13-2.34,9.71a12.48,12.48,0,0,1-1.55-4.39h-2.75a13.39,13.39,0,0,0,2.55,6.61,24.78,24.78,0,0,1-5.24,4v2.64a24.34,24.34,0,0,0,6.86-4.65,20.4,20.4,0,0,0,6.83,4.65V331a21.21,21.21,0,0,1-5.11-4A19.35,19.35,0,0,0,480.12,315h1.5v-2.12h-7.75C474.17,311.67,474.41,310.39,474.6,309ZM438.46,329.2H446v-2.11h-7.53v-2H448v-2.11H426.1v2.11h9.5v2h-7.52v2.11h7.52v2H423.89v2.12h26.29v-2.12H438.46Z" transform="translate(-296.2 -227.56)"/>
        <g class="a316c075-832b-4654-98ca-c7218b3ade60">
          <g>
            <path class="b83c570e-2831-4c1b-96dd-fed01c676097" d="M319.44,239.62a18.31,18.31,0,0,0-7.26-1.53c-2.55,0-5.42.89-5.42,4.83,0,5.25,15.2,6.4,15.2,16.15C322,267,316,270,308.5,270A23.65,23.65,0,0,1,300,268.6v-6.34a17.08,17.08,0,0,0,8.11,2.23c2.81,0,6.15-1.22,6.15-4.48,0-5.8-15.19-6.86-15.19-16.41,0-8.09,6-11,12.51-11a22.51,22.51,0,0,1,7.9,1.3Z" transform="translate(-296.2 -227.56)"/>
            <path class="a4bde2e1-13eb-48af-acc4-069339a7230c" d="M484.66,239.62a18.36,18.36,0,0,0-7.27-1.53c-2.55,0-5.41.89-5.41,4.83,0,5.25,15.2,6.4,15.2,16.15,0,7.93-6,10.94-13.47,10.94a23.79,23.79,0,0,1-8.55-1.41v-6.34a17.18,17.18,0,0,0,8.12,2.23c2.81,0,6.16-1.22,6.16-4.48,0-5.8-15.2-6.86-15.2-16.41,0-8.09,6-11,12.52-11a22.58,22.58,0,0,1,7.9,1.3Z" transform="translate(-296.2 -227.56)"/>
            <g>
              <path class="b83c570e-2831-4c1b-96dd-fed01c676097" d="M436.48,239.56a12,12,0,0,1,2.26-7,17.9,17.9,0,0,0-2.09-.13,19.11,19.11,0,1,0,19.11,19.11,18.33,18.33,0,0,0-.17-2.36,11.86,11.86,0,0,1-7.12,2.36A12,12,0,0,1,436.48,239.56Z" transform="translate(-296.2 -227.56)"/>
              <path class="a4bde2e1-13eb-48af-acc4-069339a7230c" d="M460.46,239.56a12,12,0,0,0-21.72-7,19.07,19.07,0,0,1,16.85,16.62A12,12,0,0,0,460.46,239.56Z" transform="translate(-296.2 -227.56)"/>
            </g>
            <path class="b83c570e-2831-4c1b-96dd-fed01c676097" d="M326.07,269.9v-37h20.32v6.25H333.48v8.5h10.9v6.24h-10.9v9.71h13.44v6.26Z" transform="translate(-296.2 -227.56)"/>
            <path class="b83c570e-2831-4c1b-96dd-fed01c676097" d="M352,269.9v-37h7.43v37Z" transform="translate(-296.2 -227.56)"/>
            <path class="b83c570e-2831-4c1b-96dd-fed01c676097" d="M404.8,247.84l6.29-14.9H419L408.4,255V269.9H401V255l-10.58-22h7.89Z" transform="translate(-296.2 -227.56)"/>
            <path class="a4bde2e1-13eb-48af-acc4-069339a7230c" d="M491.3,269.9v-37h7.41v14.75h10.47V232.94h7.41v37h-7.41v-16H498.71v16Z" transform="translate(-296.2 -227.56)"/>
            <path class="a4bde2e1-13eb-48af-acc4-069339a7230c" d="M576.25,232.94h10.42c7.94,0,12.51,3.18,12.51,9.53,0,3.21-1.66,5.87-4.77,7.67,4.06,2.46,5.68,4.51,5.68,9.11,0,7.31-5.16,10.65-13,10.65H576.25Zm7.41,14.64h2.58c3.32,0,5.52-1.84,5.52-4.35,0-2.71-1.66-4.45-5.16-4.45h-2.94Zm0,16.48h3.11c3.86,0,5.91-2.15,5.91-5.38,0-3.54-2.58-5.27-6.44-5.27h-2.58Z" transform="translate(-296.2 -227.56)"/>
            <path class="a4bde2e1-13eb-48af-acc4-069339a7230c" d="M612.27,232.94v25.85c0,3.52,1.62,5.37,5.22,5.37s5.25-1.85,5.25-5.37V232.94h7.41v25.89c0,8.14-5,11.57-12.66,11.57s-12.63-3.43-12.63-11.57V232.94Z" transform="translate(-296.2 -227.56)"/>
            <path class="a4bde2e1-13eb-48af-acc4-069339a7230c" d="M636.56,269.9v-37h8.11L655,254.85h.11V232.94h6.78v37h-7.1L643.44,246h-.11V269.9Z" transform="translate(-296.2 -227.56)"/>
            <polygon class="b83c570e-2831-4c1b-96dd-fed01c676097" points="95.76 42.34 84.26 22.18 94.63 5.38 86.5 5.38 77.31 21.18 77.31 5.38 69.9 5.38 69.9 42.34 77.31 42.34 77.31 23.3 87.42 42.34 95.76 42.34"/>
          </g>
          <polygon class="a4bde2e1-13eb-48af-acc4-069339a7230c" points="263.29 5.38 257.48 16.67 257.36 16.67 251.56 5.38 241.8 5.38 241.8 42.34 248.12 42.34 248.12 13.27 256.73 28.28 258.29 28.28 266.72 13.27 266.72 42.34 273.04 42.34 273.04 5.38 263.29 5.38"/>
          <rect class="a4bde2e1-13eb-48af-acc4-069339a7230c" x="227.38" y="5.38" width="7.42" height="36.96"/>
        </g>
        <path class="b83c570e-2831-4c1b-96dd-fed01c676097" d="M664.7,298.11a1681.51,1681.51,0,0,0-368.5,0v.29a2490.45,2490.45,0,0,1,368.5,0Z" transform="translate(-296.2 -227.56)"/>
      </g>
    </g>
  </g>
</svg>
