<?xml version="1.0" encoding="UTF-8"?><svg id="a" xmlns="http://www.w3.org/2000/svg" viewBox="0 0 330 114"><polyline points="112.2 51.9 83.4 51.9 83.4 35.1 68.5 35.1 68.5 79 83.4 79 83.4 61.3 112.2 61.3 112.2 79 127.1 79 127.1 35.1 112.2 35.1 112.2 51.9" style="fill:#e6000d;"/><path d="M156.6,35.1l-26.7,43.9h11.4l5.5-9h30.8l5.3,9h18.2l-26.7-43.9h-17.8ZM152,61.3l10.4-17,10.1,17h-20.4" style="fill:#e6000d;"/><path d="M260.2,54.1c3.6-4.7,3.1-11.5-3.7-15.4-6.4-3.6-18.5-5-26.1-5-12.1,0-19.9.8-26.6,1.9v43.3h14.9v-36.7c5.4-1.1,10.8-1.1,12.9-1,5.9.3,9.2,1.2,11.9,3.1,2.7,1.9,3.5,6.3,0,9.3-2.7,2.2-8.1,4-20.2,2.2l-1.7,2.8,22.9,20.3h20.3l-20.4-17.6c4.9-.6,12.3-2.6,15.9-7.2" style="fill:#e6000d;"/><path d="M35.8,50.2c-8.6-1.7-15.9-2.7-15.9-5.5s5.9-3.9,14.3-3c7.9.8,15.4,2.9,22.4,5.9l5.3-8.7c-5.6-2.1-17.2-4.9-27.8-5.2-11.6-.3-31,.7-31.9,12.4-.8,10.7,14.5,13.2,24.4,15.6,9.7,2.3,18.9,3.1,18.9,6.5s-3.2,4.2-11.7,3.6c-10.2-.8-19-3.6-27.7-7.9L.3,73.3c9.6,3.8,22.3,6.8,33.7,7,13.5.2,28.8-2,29.2-13.6.3-9.7-9.7-13.1-27.4-16.5" style="fill:#e6000d;"/><path d="M321.3,38.7c-6.1-3.6-17.4-5-26.1-5s-20,.8-26.7,1.9v43.3h14.9v-15.9c4.6.8,10.4,1.2,15.4,1.2,12.2,0,21.3-3,25.4-7.5,5.9-6.4,3.9-14.1-2.9-18.1v.1ZM308.3,53.7c-2.6,2.1-6.3,2.9-12.3,2.8-4.4,0-8.9-.8-12.6-1.7v-12.7c5.4-1.1,10.9-1.1,12.9-1,6,.2,9.4,1.3,12,3.1,2.7,1.9,3.6,6.4,0,9.4" style="fill:#e6000d;"/></svg>