<svg width="192" height="74" viewBox="0 0 192 74" fill="none" xmlns="http://www.w3.org/2000/svg">
<path d="M82.3271 69.792V52.9517H85.4476V57.0414H89.6862C91.4293 57.0414 92.7769 57.3707 93.7377 58.0291C94.6985 58.6875 95.1789 59.8102 95.1789 61.3971V69.792H92.0585V62.14C92.0585 61.1439 91.8289 60.4095 91.3655 59.9284C90.9021 59.4472 90.1496 59.2066 89.0995 59.2066H85.4476V69.792H82.3271Z" fill="black"/>
<path d="M100.744 55.3575H97.6235V52.7576H100.744V55.3575ZM97.6278 69.792V57.0415H100.748V69.792H97.6278Z" fill="black"/>
<path d="M113.085 69.7918H108.554C106.419 69.7918 104.923 69.2474 104.064 68.1542C103.201 67.0653 102.772 65.4741 102.772 63.3892C102.772 61.3042 103.197 59.7257 104.051 58.6494C104.906 57.5731 106.407 57.0371 108.558 57.0371H113.808C115.407 57.0371 116.206 57.7588 116.206 59.2023V68.8C116.206 70.6106 115.721 71.9317 114.752 72.7589C113.783 73.5862 112.235 73.9998 110.101 73.9998H103.758V71.8346H110.101C111.878 71.8346 112.873 71.1551 113.085 69.7918ZM112.286 59.2065H109.327C108.6 59.2065 108.005 59.3036 107.542 59.4935C107.078 59.6877 106.742 59.9915 106.53 60.4094C106.317 60.8272 106.173 61.2535 106.105 61.6967C106.033 62.1398 105.998 62.7054 105.998 63.3934C105.998 64.0813 106.033 64.6469 106.105 65.0901C106.177 65.5332 106.317 65.9637 106.53 66.39C106.742 66.8163 107.083 67.1286 107.542 67.327C108.005 67.5296 108.6 67.6267 109.327 67.6267H113.085V59.9282C113.085 59.4471 112.822 59.2065 112.286 59.2065Z" fill="black"/>
<path d="M118.659 69.792V52.9517H121.78V57.0414H126.018C127.761 57.0414 129.109 57.3707 130.07 58.0291C131.031 58.6875 131.511 59.8102 131.511 61.3971V69.792H128.39V62.14C128.39 61.1439 128.161 60.4095 127.698 59.9284C127.234 59.4472 126.482 59.2066 125.432 59.2066H121.78V69.792H118.659Z" fill="black"/>
<path d="M148.031 69.792H146.084C144.397 69.792 143.108 69.4712 142.22 68.8296C141.331 68.1881 140.889 67.1203 140.889 65.6304V59.2066H138.942V57.0414H140.889V52.9517H144.01V57.0414H148.036V59.2066H144.01V65.0522C144.01 65.9807 144.278 66.6434 144.809 67.0359C145.34 67.4284 146.161 67.6268 147.262 67.6268H148.036V69.792H148.031Z" fill="black"/>
<path d="M161.997 69.792H154.162C153.061 69.792 152.151 69.657 151.428 69.3826C150.71 69.1083 150.162 68.682 149.787 68.0953C149.413 67.5087 149.163 66.8545 149.026 66.1327C148.89 65.411 148.827 64.4951 148.827 63.3893C148.827 60.9203 149.345 59.2194 150.387 58.2908C151.428 57.3623 153.18 56.8938 155.65 56.8938C157.852 56.8938 159.536 57.2568 160.701 57.9869C161.866 58.7171 162.448 60.0339 162.448 61.9459C162.448 63.5497 161.721 64.3516 160.263 64.3516H152.053C152.053 65.4574 152.253 66.2805 152.653 66.8165C153.052 67.3525 153.864 67.6226 155.093 67.6226H161.997V69.792ZM152.058 62.1907H158.537C159 62.1907 159.23 61.9417 159.23 61.4436C159.23 60.6586 158.885 60.0635 158.205 59.6625C157.521 59.2616 156.675 59.0632 155.659 59.0632C154.345 59.0632 153.414 59.308 152.874 59.7976C152.326 60.283 152.058 61.0807 152.058 62.1907Z" fill="black"/>
<path d="M176.018 59.2067H170.874C170.236 59.2067 169.692 59.2784 169.25 59.4219C168.804 59.5654 168.455 59.7511 168.196 59.9748C167.936 60.1985 167.737 60.5024 167.596 60.8907C167.456 61.2748 167.367 61.6546 167.328 62.0218C167.294 62.389 167.273 62.8491 167.273 63.3935C167.273 64.0815 167.307 64.6471 167.379 65.0902C167.452 65.5334 167.601 65.9639 167.834 66.3902C168.064 66.8165 168.434 67.1288 168.94 67.3272C169.446 67.5298 170.092 67.6268 170.874 67.6268H176.337V69.792H170.1C167.843 69.792 166.27 69.2518 165.381 68.1671C164.493 67.0866 164.046 65.4912 164.046 63.3935C164.046 61.3086 164.489 59.73 165.381 58.6538C166.27 57.5775 167.843 57.0415 170.1 57.0415H176.018V59.2067Z" fill="black"/>
<path d="M178.208 69.792V52.9517H181.328V57.0414H185.567C187.31 57.0414 188.657 57.3707 189.618 58.0291C190.579 58.6875 191.059 59.8102 191.059 61.3971V69.792H187.939V62.14C187.939 61.1439 187.709 60.4095 187.246 59.9284C186.782 59.4472 186.03 59.2066 184.98 59.2066H181.328V69.792H178.208Z" fill="black"/>
<path d="M44.0693 7.79956H40.8978C39.6352 7.79956 38.6106 8.81673 38.6106 10.0703V33.4019C38.6106 34.6554 39.6352 35.6726 40.8978 35.6726H44.0736C45.3362 35.6726 46.3608 34.6554 46.3608 33.4019V10.0703C46.3565 8.81673 45.332 7.79956 44.0693 7.79956Z" fill="#EA0029"/>
<path d="M32.6545 7.79956C30.6521 7.79956 28.9729 8.98978 28.1608 10.6949L19.7347 28.4722C19.5349 28.8942 19.1395 29.578 18.8079 29.578C18.4763 29.578 18.0809 28.8942 17.8811 28.4722L9.39545 10.6949C8.5792 8.98978 6.89992 7.79956 4.90179 7.79956H0L13.3747 33.5158C14.7011 36.0397 17.4135 35.9891 18.8079 35.9891C20.7295 35.9891 22.9785 35.8836 24.1731 33.5158L37.5478 7.79956H32.6545Z" fill="#EA0029"/>
<path d="M180.461 3.52851C180.461 2.27498 179.436 1.25781 178.173 1.25781H174.998C173.735 1.25781 172.71 2.27498 172.71 3.52851V26.5773C172.71 30.1016 173.969 32.1528 176.222 33.6258C178.407 35.0439 180.924 35.677 185.626 35.677H188.173C189.435 35.677 190.46 34.6598 190.46 33.4063V30.9457H188.538C187.148 30.9457 184.236 30.8908 182.51 29.7344C180.261 28.2614 180.456 25.6319 180.456 23.7369V3.52851H180.461Z" fill="#EA0029"/>
<path d="M130.856 30.9415C129.466 30.9415 126.55 30.8866 124.828 29.7301C122.579 28.2571 122.774 25.6277 122.774 23.7326V12.5353H130.286C131.549 12.5353 132.574 11.5181 132.574 10.2646V7.79978H122.779V3.52851C122.779 2.27498 121.754 1.25781 120.491 1.25781H117.316C116.053 1.25781 115.028 2.27498 115.028 3.52851V7.79978H98.8691V3.52851C98.8691 2.27498 97.8445 1.25781 96.5819 1.25781H93.4061C92.1435 1.25781 91.1189 2.27498 91.1189 3.52851V7.79978H86.2852V10.2646C86.2852 11.5181 87.3097 12.5353 88.5724 12.5353H91.1232V26.5773C91.1232 30.1016 92.3816 32.1528 94.6305 33.6258C96.8157 35.0439 99.3325 35.677 104.034 35.677H106.581C107.844 35.677 108.868 34.6598 108.868 33.4063V30.9457H106.947C105.556 30.9457 102.644 30.8908 100.923 29.7344C98.6693 28.2614 98.8691 25.6319 98.8691 23.7369V12.5353H115.028V26.5773C115.028 30.1016 116.287 32.1528 118.54 33.6258C120.725 35.0439 123.242 35.677 127.944 35.677H130.491C131.753 35.677 132.778 34.6598 132.778 33.4063V30.9457H130.856V30.9415Z" fill="#EA0029"/>
<path d="M83.441 33.4061V30.9455H66.2911C63.4427 30.9455 60.1989 30.629 59.2041 27.6323C58.9405 26.7924 58.7407 25.0029 58.7407 23.7915H79.1386C80.5288 23.7915 81.8552 23.5805 82.9138 22.7364C84.372 21.5799 84.5718 19.9508 84.5718 18.5284C84.5718 15.0042 83.7088 11.5349 79.602 9.48364C76.3583 7.85448 72.1197 7.69409 68.0129 7.69409C64.7011 7.69409 58.7407 7.69409 54.9018 10.3235C51.0628 12.953 50.7312 16.7895 50.7312 21.9978C50.7312 25.6782 50.931 29.5189 53.248 32.1484C56.1602 35.4109 60.3987 35.6726 63.9741 35.6726H81.158C82.4164 35.6768 83.441 34.6597 83.441 33.4061ZM76.5538 17.4268C76.5538 18.1655 76.354 19.056 74.832 19.056H63.8126C61.0109 19.056 58.7407 20.3264 58.7407 21.8965V19.056C58.8045 17.2158 58.7407 15.688 60.3307 14.2698C62.4521 12.3748 65.6279 12.4296 67.6813 12.4296C69.8665 12.4296 72.3833 12.5351 74.3049 13.6916C75.4272 14.3753 76.5538 15.688 76.5538 17.4268Z" fill="#EA0029"/>
<path d="M167.214 33.4061V30.9455H150.064C147.215 30.9455 143.972 30.629 142.977 27.6323C142.713 26.7924 142.513 25.0029 142.513 23.7915H162.911C164.302 23.7915 165.628 23.5805 166.687 22.7364C168.145 21.5799 168.34 19.9508 168.34 18.5284C168.34 15.0042 167.477 11.5349 163.375 9.48364C160.131 7.85448 155.892 7.69409 151.786 7.69409C148.474 7.69409 142.513 7.69409 138.674 10.3235C134.831 12.953 134.504 16.7895 134.504 21.9978C134.504 25.6782 134.704 29.5189 137.021 32.1484C139.933 35.4109 144.171 35.6726 147.751 35.6726H164.935C166.189 35.6768 167.214 34.6597 167.214 33.4061ZM160.327 17.4268C160.327 18.1655 160.127 19.056 158.605 19.056H147.585C144.784 19.056 142.513 20.3264 142.513 21.8965V19.056C142.581 17.2158 142.513 15.688 144.103 14.2698C146.225 12.3748 149.401 12.4296 151.454 12.4296C153.639 12.4296 156.156 12.5351 158.078 13.6916C159.2 14.3753 160.327 15.688 160.327 17.4268Z" fill="#EA0029"/>
<path d="M44.0693 0H40.8978C39.6352 0 38.6106 1.01717 38.6106 2.2707V2.89957V8.12892C38.6106 6.753 40.1538 5.17026 42.4836 5.17026H44.0736C45.3362 5.17026 46.3608 4.15309 46.3608 2.89957V2.2707C46.3565 1.01717 45.332 0 44.0693 0Z" fill="#EA0029"/>
</svg>
