<svg width="136" height="38" viewBox="0 0 136 38" fill="none" xmlns="http://www.w3.org/2000/svg">
<path d="M22.3489 3.92428H20.7516C20.1156 3.92428 19.5996 4.43605 19.5996 5.06674V16.8056C19.5996 17.4363 20.1156 17.9481 20.7516 17.9481H22.3511C22.987 17.9481 23.503 17.4363 23.503 16.8056V5.06674C23.5009 4.43605 22.9849 3.92428 22.3489 3.92428Z" fill="#EA0029"/>
<path d="M16.5997 3.92428C15.5912 3.92428 14.7454 4.52311 14.3364 5.38102L10.0926 14.3253C9.99192 14.5377 9.79279 14.8817 9.62578 14.8817C9.45877 14.8817 9.25963 14.5377 9.159 14.3253L4.88515 5.38102C4.47403 4.52311 3.62826 3.92428 2.62189 3.92428H0.153076L6.88932 16.8629C7.55737 18.1328 8.92346 18.1073 9.62578 18.1073C10.5936 18.1073 11.7263 18.0542 12.328 16.8629L19.0642 3.92428H16.5997Z" fill="#EA0029"/>
<path d="M91.0431 1.77527C91.0431 1.14458 90.527 0.632812 89.8911 0.632812H88.2916C87.6557 0.632812 87.1396 1.14458 87.1396 1.77527V13.3719C87.1396 15.145 87.7734 16.177 88.9083 16.9181C90.0089 17.6316 91.2765 17.9502 93.6446 17.9502H94.9272C95.5632 17.9502 96.0792 17.4384 96.0792 16.8077V15.5697H95.1114C94.4112 15.5697 92.9445 15.5421 92.0751 14.9602C90.9424 14.2191 91.0409 12.8962 91.0409 11.9427V1.77527H91.0431Z" fill="#EA0029"/>
<path d="M66.0595 15.5676C65.3593 15.5676 63.8905 15.54 63.0233 14.9581C61.8906 14.217 61.9891 12.8941 61.9891 11.9406V6.30688H65.7726C66.4085 6.30688 66.9246 5.79511 66.9246 5.16442V3.92428H61.9912V1.77527C61.9912 1.14458 61.4752 0.632812 60.8392 0.632812H59.2398C58.6038 0.632812 58.0878 1.14458 58.0878 1.77527V3.92428H49.9491V1.77527C49.9491 1.14458 49.433 0.632812 48.7971 0.632812H47.1976C46.5617 0.632812 46.0456 1.14458 46.0456 1.77527V3.92428H43.6111V5.16442C43.6111 5.79511 44.1271 6.30688 44.7631 6.30688H46.0478V13.3719C46.0478 15.145 46.6816 16.177 47.8143 16.9181C48.9149 17.6316 50.1825 17.9502 52.5506 17.9502H53.8332C54.4691 17.9502 54.9852 17.4384 54.9852 16.8077V15.5697H54.0174C53.3172 15.5697 51.8504 15.5421 50.9833 14.9602C49.8484 14.2191 49.9491 12.8962 49.9491 11.9427V6.30688H58.0878V13.3719C58.0878 15.145 58.7216 16.177 59.8564 16.9181C60.957 17.6316 62.2246 17.9502 64.5928 17.9502H65.8754C66.5113 17.9502 67.0273 17.4384 67.0273 16.8077V15.5697H66.0595V15.5676Z" fill="#EA0029"/>
<path d="M42.1786 16.8077V15.5697H33.5409C32.1063 15.5697 30.4726 15.4104 29.9715 13.9027C29.8388 13.4802 29.7381 12.5798 29.7381 11.9703H40.0117C40.7118 11.9703 41.3799 11.8641 41.913 11.4394C42.6475 10.8576 42.7481 10.0379 42.7481 9.32229C42.7481 7.54914 42.3135 5.8036 40.245 4.77157C38.6113 3.95189 36.4765 3.87119 34.4081 3.87119C32.7401 3.87119 29.7381 3.87119 27.8046 5.19415C25.8711 6.51711 25.7041 8.44739 25.7041 11.0678C25.7041 12.9195 25.8047 14.8519 26.9717 16.1749C28.4384 17.8164 30.5732 17.9481 32.374 17.9481H41.0287C41.6625 17.9502 42.1786 17.4384 42.1786 16.8077ZM38.7098 8.76804C38.7098 9.13966 38.6092 9.58773 37.8426 9.58773H32.2926C30.8815 9.58773 29.7381 10.2269 29.7381 11.0169V9.58773C29.7703 8.66187 29.7381 7.89315 30.539 7.17965C31.6074 6.22618 33.2069 6.25379 34.2411 6.25379C35.3417 6.25379 36.6093 6.30688 37.5771 6.88872C38.1424 7.23273 38.7098 7.89315 38.7098 8.76804Z" fill="#EA0029"/>
<path d="M84.3709 16.8077V15.5697H75.7333C74.2987 15.5697 72.665 15.4104 72.1639 13.9027C72.0312 13.4802 71.9305 12.5798 71.9305 11.9703H82.204C82.9042 11.9703 83.5723 11.8641 84.1054 11.4394C84.8399 10.8576 84.9384 10.0379 84.9384 9.32229C84.9384 7.54914 84.5037 5.8036 82.4374 4.77157C80.8037 3.95189 78.6689 3.87119 76.6005 3.87119C74.9325 3.87119 71.9305 3.87119 69.997 5.19415C68.0614 6.51711 67.8965 8.44739 67.8965 11.0678C67.8965 12.9195 67.9971 14.8519 69.1641 16.1749C70.6308 17.8164 72.7656 17.9481 74.5685 17.9481H83.2233C83.8549 17.9502 84.3709 17.4384 84.3709 16.8077ZM80.9022 8.76804C80.9022 9.13966 80.8015 9.58773 80.035 9.58773H74.485C73.0739 9.58773 71.9305 10.2269 71.9305 11.0169V9.58773C71.9648 8.66187 71.9305 7.89315 72.7313 7.17965C73.7998 6.22618 75.3993 6.25379 76.4335 6.25379C77.5341 6.25379 78.8017 6.30688 79.7695 6.88872C80.3348 7.23273 80.9022 7.89315 80.9022 8.76804Z" fill="#EA0029"/>
<path d="M22.3489 0H20.7516C20.1156 0 19.5996 0.51177 19.5996 1.14246V1.45886V4.08991C19.5996 3.39764 20.3769 2.60132 21.5503 2.60132H22.3511C22.987 2.60132 23.503 2.08955 23.503 1.45886V1.14246C23.5009 0.51177 22.9849 0 22.3489 0Z" fill="#EA0029"/>
<path d="M41.4895 34.9713V26.4984H43.0612V28.5561H45.1959C46.0738 28.5561 46.7526 28.7218 47.2365 29.053C47.7204 29.3843 47.9624 29.9491 47.9624 30.7476V34.9713H46.3907V31.1213C46.3907 30.6202 46.2751 30.2507 46.0417 30.0086C45.8083 29.7665 45.4293 29.6455 44.9004 29.6455H43.0612V34.9713H41.4895Z" fill="white"/>
<path d="M50.7652 27.7088H49.1936V26.4007H50.7652V27.7088ZM49.1957 34.9713V28.5561H50.7674V34.9713H49.1957Z" fill="white"/>
<path d="M56.9812 34.9713H54.6987C53.6238 34.9713 52.8701 34.6974 52.4375 34.1474C52.0029 33.5995 51.7866 32.7989 51.7866 31.7499C51.7866 30.7009 52.0007 29.9067 52.4311 29.3652C52.8615 28.8237 53.6174 28.554 54.7008 28.554H57.3452C58.1503 28.554 58.5528 28.9171 58.5528 29.6434V34.4723C58.5528 35.3833 58.3087 36.0479 57.8206 36.4641C57.3324 36.8803 56.553 37.0884 55.4781 37.0884H52.2834V35.9991H55.4781C56.3731 35.9991 56.8741 35.6572 56.9812 34.9713ZM56.5786 29.6455H55.0884C54.7222 29.6455 54.4225 29.6943 54.1891 29.7899C53.9557 29.8876 53.7865 30.0405 53.6794 30.2507C53.5724 30.4609 53.4996 30.6754 53.4653 30.8984C53.4289 31.1213 53.4118 31.4059 53.4118 31.752C53.4118 32.0982 53.4289 32.3827 53.4653 32.6057C53.5017 32.8286 53.5724 33.0453 53.6794 33.2597C53.7865 33.4742 53.9578 33.6313 54.1891 33.7312C54.4225 33.8331 54.7222 33.8819 55.0884 33.8819H56.9812V30.0086C56.9812 29.7665 56.8484 29.6455 56.5786 29.6455Z" fill="white"/>
<path d="M59.7883 34.9713V26.4984H61.36V28.5561H63.4948C64.3727 28.5561 65.0514 28.7217 65.5353 29.053C66.0193 29.3843 66.2612 29.9491 66.2612 30.7476V34.9713H64.6896V31.1213C64.6896 30.6202 64.5739 30.2507 64.3405 30.0086C64.1072 29.7665 63.7282 29.6455 63.1993 29.6455H61.36V34.9713H59.7883Z" fill="white"/>
<path d="M74.5818 34.9713H73.6011C72.7511 34.9713 72.1023 34.8099 71.6548 34.4871C71.2073 34.1644 70.9846 33.6271 70.9846 32.8775V29.6455H70.0039V28.5561H70.9846V26.4984H72.5562V28.5561H74.5839V29.6455H72.5562V32.5866C72.5562 33.0537 72.6911 33.3871 72.9588 33.5846C73.2264 33.7821 73.6397 33.8819 74.1943 33.8819H74.5839V34.9713H74.5818Z" fill="white"/>
<path d="M81.6156 34.9713H77.6694C77.1148 34.9713 76.6566 34.9033 76.2926 34.7653C75.9307 34.6273 75.6545 34.4128 75.4661 34.1176C75.2777 33.8225 75.1513 33.4933 75.0828 33.1302C75.0143 32.7671 74.9822 32.3063 74.9822 31.7499C74.9822 30.5076 75.2434 29.6519 75.768 29.1847C76.2926 28.7175 77.1748 28.4818 78.4188 28.4818C79.528 28.4818 80.3759 28.6644 80.9626 29.0318C81.5493 29.3992 81.8426 30.0617 81.8426 31.0237C81.8426 31.8306 81.4765 32.2341 80.742 32.2341H76.6074C76.6074 32.7904 76.708 33.2045 76.9093 33.4742C77.1105 33.7439 77.5195 33.8798 78.1383 33.8798H81.6156V34.9713ZM76.6095 31.1468H79.8727C80.1061 31.1468 80.2217 31.0215 80.2217 30.771C80.2217 30.376 80.0483 30.0766 79.7057 29.8748C79.3609 29.6731 78.9349 29.5733 78.4231 29.5733C77.7615 29.5733 77.2925 29.6964 77.0206 29.9428C76.7444 30.187 76.6095 30.5883 76.6095 31.1468Z" fill="white"/>
<path d="M88.6773 29.6455H86.0865C85.7653 29.6455 85.4912 29.6816 85.2685 29.7538C85.0437 29.826 84.8681 29.9194 84.7375 30.032C84.6069 30.1445 84.5063 30.2974 84.4356 30.4928C84.365 30.686 84.32 30.8771 84.3007 31.0619C84.2836 31.2466 84.2729 31.4781 84.2729 31.752C84.2729 32.0982 84.29 32.3827 84.3264 32.6057C84.3628 32.8287 84.4378 33.0453 84.5555 33.2597C84.6711 33.4742 84.8574 33.6313 85.1122 33.7312C85.367 33.8331 85.6925 33.8819 86.0865 33.8819H88.8379V34.9713H85.6968C84.5598 34.9713 83.7676 34.6995 83.32 34.1537C82.8725 33.6101 82.6477 32.8074 82.6477 31.752C82.6477 30.703 82.8704 29.9088 83.32 29.3673C83.7676 28.8258 84.5598 28.5561 85.6968 28.5561H88.6773V29.6455Z" fill="white"/>
<path d="M89.7803 34.9713V26.4984H91.3519V28.5561H93.4867C94.3646 28.5561 95.0434 28.7217 95.5273 29.053C96.0112 29.3843 96.2531 29.9491 96.2531 30.7476V34.9713H94.6815V31.1213C94.6815 30.6202 94.5659 30.2507 94.3325 30.0086C94.0991 29.7665 93.7201 29.6455 93.1912 29.6455H91.3519V34.9713H89.7803Z" fill="white"/>
<rect x="112.27" y="4" width="23.024" height="14" rx="1" fill="#EA0029"/>
<path d="M123.782 6L124.793 9.45492H128.066L125.418 11.5902L126.43 15.0451L123.782 12.9098L121.134 15.0451L122.145 11.5902L119.498 9.45492H122.77L123.782 6Z" fill="#FFE600"/>
</svg>
